{
  "accessors": [
    {
      "bufferView": 2,
      "componentType": 5126,
      "count": 1228,
      "max": [
        1375.2440185546875,
        573.6785278320313,
        576.2714233398438
      ],
      "min": [
        -1694.5400390625,
        -1728.47412109375,
        -2.754284381866455
      ],
      "type": "VEC3"
    },
    {
      "bufferView": 2,
      "byteOffset": 14736,
      "componentType": 5126,
      "count": 1228,
      "max": [
        1.0,
        1.0,
        1.0
      ],
      "min": [
        -1.0,
        -1.0,
        -1.0
      ],
      "type": "VEC3"
    },
    {
      "bufferView": 1,
      "componentType": 5126,
      "count": 1228,
      "max": [
        0.9993040561676025,
        -0.37463799118995667
      ],
      "min": [
        0.6259769797325134,
        -0.8134785294532776
      ],
      "type": "VEC2"
    },
    {
      "bufferView": 1,
      "byteOffset": 9824,
      "componentType": 5126,
      "count": 1228,
      "max": [
        0.9993040561676025,
        -0.37463799118995667
      ],
      "min": [
        0.6259769797325134,
        -0.8134785294532776
      ],
      "type": "VEC2"
    },
    {
      "bufferView": 0,
      "componentType": 5125,
      "count": 2109,
      "type": "SCALAR"
    },
    {
      "bufferView": 2,
      "byteOffset": 29472,
      "componentType": 5126,
      "count": 92,
      "max": [
        1085.1280517578125,
        303.89508056640625,
        197.932861328125
      ],
      "min": [
        -1175.1090087890625,
        -286.5440368652344,
        88.3369369506836
      ],
      "type": "VEC3"
    },
    {
      "bufferView": 2,
      "byteOffset": 30576,
      "componentType": 5126,
      "count": 92,
      "max": [
        1.0,
        1.0,
        4.686773991124937e-06
      ],
      "min": [
        -1.0,
        0.0,
        0.0
      ],
      "type": "VEC3"
    },
    {
      "bufferView": 1,
      "byteOffset": 19648,
      "componentType": 5126,
      "count": 92,
      "max": [
        0.31541499495506287,
        -0.002425967948511243
      ],
      "min": [
        0.0017599459970369935,
        -0.49717798829078674
      ],
      "type": "VEC2"
    },
    {
      "bufferView": 1,
      "byteOffset": 20384,
      "componentType": 5126,
      "count": 92,
      "max": [
        0.31541499495506287,
        -0.002425967948511243
      ],
      "min": [
        0.0017599459970369935,
        -0.49717798829078674
      ],
      "type": "VEC2"
    },
    {
      "bufferView": 0,
      "byteOffset": 8436,
      "componentType": 5125,
      "count": 138,
      "type": "SCALAR"
    },
    {
      "bufferView": 2,
      "byteOffset": 31680,
      "componentType": 5126,
      "count": 256,
      "max": [
        1374.7640380859375,
        578.010009765625,
        575.6849975585938
      ],
      "min": [
        -1695.7869873046875,
        -1728.47314453125,
        -0.04423470422625542
      ],
      "type": "VEC3"
    },
    {
      "bufferView": 2,
      "byteOffset": 34752,
      "componentType": 5126,
      "count": 256,
      "max": [
        1.0,
        1.2721610573862563e-06,
        1.0
      ],
      "min": [
        -1.0,
        -2.726079060266784e-07,
        -1.0
      ],
      "type": "VEC3"
    },
    {
      "bufferView": 1,
      "byteOffset": 21120,
      "componentType": 5126,
      "count": 256,
      "max": [
        0.9970700144767761,
        7.476583414245397e-05
      ],
      "min": [
        -0.00488417549058795,
        -0.9399243593215942
      ],
      "type": "VEC2"
    },
    {
      "bufferView": 1,
      "byteOffset": 23168,
      "componentType": 5126,
      "count": 256,
      "max": [
        0.9970700144767761,
        7.476583414245397e-05
      ],
      "min": [
        -0.00488417549058795,
        -0.9399243593215942
      ],
      "type": "VEC2"
    },
    {
      "bufferView": 0,
      "byteOffset": 8988,
      "componentType": 5125,
      "count": 414,
      "type": "SCALAR"
    },
    {
      "bufferView": 2,
      "byteOffset": 37824,
      "componentType": 5126,
      "count": 955,
      "max": [
        967.1968994140625,
        567.537109375,
        354.74896240234375
      ],
      "min": [
        -1438.387939453125,
        -301.59393310546875,
        -0.04384850710630417
      ],
      "type": "VEC3"
    },
    {
      "bufferView": 2,
      "byteOffset": 49284,
      "componentType": 5126,
      "count": 955,
      "max": [
        1.0,
        1.0,
        1.0
      ],
      "min": [
        -1.0,
        -1.0,
        -1.0
      ],
      "type": "VEC3"
    },
    {
      "bufferView": 1,
      "byteOffset": 25216,
      "componentType": 5126,
      "count": 955,
      "max": [
        404.2295227050781,
        139.66490173339844
      ],
      "min": [
        -404.2295227050781,
        -118.73775482177734
      ],
      "type": "VEC2"
    },
    {
      "bufferView": 1,
      "byteOffset": 32856,
      "componentType": 5126,
      "count": 955,
      "max": [
        404.2295227050781,
        139.66490173339844
      ],
      "min": [
        -404.2295227050781,
        -118.73775482177734
      ],
      "type": "VEC2"
    },
    {
      "bufferView": 0,
      "byteOffset": 10644,
      "componentType": 5125,
      "count": 1569,
      "type": "SCALAR"
    },
    {
      "bufferView": 2,
      "byteOffset": 60744,
      "componentType": 5126,
      "count": 19568,
      "max": [
        1386.758056640625,
        592.6408081054688,
        580.7891845703125
      ],
      "min": [
        -1707.781982421875,
        -1722.9710693359375,
        -0.5428687930107117
      ],
      "type": "VEC3"
    },
    {
      "bufferView": 2,
      "byteOffset": 295560,
      "componentType": 5126,
      "count": 19568,
      "max": [
        1.0,
        1.0,
        1.0
      ],
      "min": [
        -1.0,
        -1.0,
        -1.0
      ],
      "type": "VEC3"
    },
    {
      "bufferView": 1,
      "byteOffset": 40496,
      "componentType": 5126,
      "count": 19568,
      "max": [
        669.34765625,
        648.4580688476563
      ],
      "min": [
        -669.34765625,
        -672.6075439453125
      ],
      "type": "VEC2"
    },
    {
      "bufferView": 1,
      "byteOffset": 197040,
      "componentType": 5126,
      "count": 19568,
      "max": [
        669.34765625,
        648.4580688476563
      ],
      "min": [
        -669.34765625,
        -672.6075439453125
      ],
      "type": "VEC2"
    },
    {
      "bufferView": 0,
      "byteOffset": 16920,
      "componentType": 5125,
      "count": 34647,
      "type": "SCALAR"
    },
    {
      "bufferView": 2,
      "byteOffset": 530376,
      "componentType": 5126,
      "count": 1749,
      "max": [
        1375.2440185546875,
        575.6121826171875,
        575.68505859375
      ],
      "min": [
        -1696.2669677734375,
        -1728.47314453125,
        -0.04360004886984825
      ],
      "type": "VEC3"
    },
    {
      "bufferView": 2,
      "byteOffset": 551364,
      "componentType": 5126,
      "count": 1749,
      "max": [
        1.0,
        1.0,
        1.0
      ],
      "min": [
        -1.0,
        -1.0,
        -1.0
      ],
      "type": "VEC3"
    },
    {
      "bufferView": 1,
      "byteOffset": 353584,
      "componentType": 5126,
      "count": 1749,
      "max": [
        667.8216552734375,
        226.5438995361328
      ],
      "min": [
        -541.4346313476563,
        -680.5011596679688
      ],
      "type": "VEC2"
    },
    {
      "bufferView": 1,
      "byteOffset": 367576,
      "componentType": 5126,
      "count": 1749,
      "max": [
        667.8216552734375,
        226.5438995361328
      ],
      "min": [
        -541.4346313476563,
        -680.5011596679688
      ],
      "type": "VEC2"
    },
    {
      "bufferView": 0,
      "byteOffset": 155508,
      "componentType": 5125,
      "count": 2985,
      "type": "SCALAR"
    },
    {
      "bufferView": 2,
      "byteOffset": 572352,
      "componentType": 5126,
      "count": 317,
      "max": [
        1375.2440185546875,
        577.098876953125,
        575.6849975585938
      ],
      "min": [
        -1696.2669677734375,
        -1728.47314453125,
        -0.0438472218811512
      ],
      "type": "VEC3"
    },
    {
      "bufferView": 2,
      "byteOffset": 576156,
      "componentType": 5126,
      "count": 317,
      "max": [
        1.0,
        1.0,
        6.008507170918165e-06
      ],
      "min": [
        -1.0,
        -1.0,
        -1.0
      ],
      "type": "VEC3"
    },
    {
      "bufferView": 1,
      "byteOffset": 381568,
      "componentType": 5126,
      "count": 317,
      "max": [
        0.9357770085334778,
        0.0009768371237441897
      ],
      "min": [
        0.0029298269655555487,
        -0.9384769797325134
      ],
      "type": "VEC2"
    },
    {
      "bufferView": 1,
      "byteOffset": 384104,
      "componentType": 5126,
      "count": 317,
      "max": [
        0.9357770085334778,
        0.0009768371237441897
      ],
      "min": [
        0.0029298269655555487,
        -0.9384769797325134
      ],
      "type": "VEC2"
    },
    {
      "bufferView": 0,
      "byteOffset": 167448,
      "componentType": 5125,
      "count": 576,
      "type": "SCALAR"
    },
    {
      "bufferView": 2,
      "byteOffset": 579960,
      "componentType": 5126,
      "count": 25968,
      "max": [
        1386.758056640625,
        592.6408081054688,
        580.7891845703125
      ],
      "min": [
        -1707.781982421875,
        -1728.47412109375,
        -2.754284381866455
      ],
      "type": "VEC3"
    },
    {
      "bufferView": 2,
      "byteOffset": 891576,
      "componentType": 5126,
      "count": 25968,
      "max": [
        1.0,
        1.0,
        1.0
      ],
      "min": [
        -1.0,
        -1.0,
        -1.0
      ],
      "type": "VEC3"
    },
    {
      "bufferView": 1,
      "byteOffset": 386640,
      "componentType": 5126,
      "count": 25968,
      "max": [
        723.2886352539063,
        653.0172119140625
      ],
      "min": [
        -720.60888671875,
        -680.5015258789063
      ],
      "type": "VEC2"
    },
    {
      "bufferView": 1,
      "byteOffset": 594384,
      "componentType": 5126,
      "count": 25968,
      "max": [
        723.2886352539063,
        653.0172119140625
      ],
      "min": [
        -720.60888671875,
        -680.5015258789063
      ],
      "type": "VEC2"
    },
    {
      "bufferView": 0,
      "byteOffset": 169752,
      "componentType": 5125,
      "count": 42438,
      "type": "SCALAR"
    }
  ],
  "asset": {
    "extras": {
      "author": "katydid (https://sketchfab.com/Katydid.)",
      "license": "SKETCHFAB Standard (https://sketchfab.com/licenses)",
      "source": "https://sketchfab.com/3d-models/horror-corridor-2-a1ebbf8e3f034b2f8a8012d7f9fa89bc",
      "title": "Horror corridor 2"
    },
    "generator": "Sketchfab-16.74.0",
    "version": "2.0"
  },
  "bufferViews": [
    {
      "buffer": 0,
      "byteLength": 339504,
      "name": "floatBufferViews",
      "target": 34963
    },
    {
      "buffer": 0,
      "byteLength": 802128,
      "byteOffset": 339504,
      "byteStride": 8,
      "name": "floatBufferViews",
      "target": 34962
    },
    {
      "buffer": 0,
      "byteLength": 1203192,
      "byteOffset": 1141632,
      "byteStride": 12,
      "name": "floatBufferViews",
      "target": 34962
    }
  ],
  "buffers": [
    {
      "byteLength": 2344824,
      "uri": "scene.bin"
    }
  ],
  "images": [
    {
      "uri": "textures/TextureMaterial_baseColor.png"
    },
    {
      "uri": "textures/TextureMaterial_1_baseColor.png"
    },
    {
      "uri": "textures/TextureMaterial_2_baseColor.png"
    },
    {
      "uri": "textures/TextureMaterial_3_baseColor.png"
    },
    {
      "uri": "textures/TextureMaterial_4_baseColor.png"
    },
    {
      "uri": "textures/TextureMaterial_5_baseColor.png"
    },
    {
      "uri": "textures/TextureMaterial_6_baseColor.png"
    },
    {
      "uri": "textures/TextureMaterial_7_baseColor.png"
    }
  ],
  "materials": [
    {
      "alphaMode": "BLEND",
      "name": "TextureMaterial",
      "pbrMetallicRoughness": {
        "baseColorTexture": {
          "index": 0
        },
        "metallicFactor": 0.0,
        "roughnessFactor": 0.5
      }
    },
    {
      "alphaMode": "BLEND",
      "name": "TextureMaterial_1",
      "pbrMetallicRoughness": {
        "baseColorTexture": {
          "index": 1
        },
        "metallicFactor": 0.0,
        "roughnessFactor": 0.5
      }
    },
    {
      "name": "TextureMaterial_2",
      "pbrMetallicRoughness": {
        "baseColorTexture": {
          "index": 2
        },
        "metallicFactor": 0.0,
        "roughnessFactor": 0.5
      }
    },
    {
      "alphaMode": "BLEND",
      "name": "TextureMaterial_3",
      "pbrMetallicRoughness": {
        "baseColorTexture": {
          "index": 3
        },
        "metallicFactor": 0.0,
        "roughnessFactor": 0.5
      }
    },
    {
      "alphaMode": "BLEND",
      "name": "TextureMaterial_4",
      "pbrMetallicRoughness": {
        "baseColorTexture": {
          "index": 4
        },
        "metallicFactor": 0.0,
        "roughnessFactor": 0.5
      }
    },
    {
      "alphaMode": "BLEND",
      "name": "TextureMaterial_5",
      "pbrMetallicRoughness": {
        "baseColorTexture": {
          "index": 5
        },
        "metallicFactor": 0.0,
        "roughnessFactor": 0.5
      }
    },
    {
      "alphaMode": "BLEND",
      "name": "TextureMaterial_6",
      "pbrMetallicRoughness": {
        "baseColorTexture": {
          "index": 6
        },
        "metallicFactor": 0.0,
        "roughnessFactor": 0.5
      }
    },
    {
      "alphaMode": "BLEND",
      "name": "TextureMaterial_7",
      "pbrMetallicRoughness": {
        "baseColorTexture": {
          "index": 7
        },
        "metallicFactor": 0.0,
        "roughnessFactor": 0.5
      }
    }
  ],
  "meshes": [
    {
      "name": "FrontSide_0",
      "primitives": [
        {
          "attributes": {
            "NORMAL": 1,
            "POSITION": 0,
            "TEXCOORD_0": 2,
            "TEXCOORD_1": 3
          },
          "indices": 4,
          "material": 0,
          "mode": 4
        }
      ]
    },
    {
      "name": "FrontSide_1",
      "primitives": [
        {
          "attributes": {
            "NORMAL": 6,
            "POSITION": 5,
            "TEXCOORD_0": 7,
            "TEXCOORD_1": 8
          },
          "indices": 9,
          "material": 1,
          "mode": 4
        }
      ]
    },
    {
      "name": "FrontSide_2",
      "primitives": [
        {
          "attributes": {
            "NORMAL": 11,
            "POSITION": 10,
            "TEXCOORD_0": 12,
            "TEXCOORD_1": 13
          },
          "indices": 14,
          "material": 2,
          "mode": 4
        }
      ]
    },
    {
      "name": "FrontSide_3",
      "primitives": [
        {
          "attributes": {
            "NORMAL": 16,
            "POSITION": 15,
            "TEXCOORD_0": 17,
            "TEXCOORD_1": 18
          },
          "indices": 19,
          "material": 3,
          "mode": 4
        }
      ]
    },
    {
      "name": "FrontSide_4",
      "primitives": [
        {
          "attributes": {
            "NORMAL": 21,
            "POSITION": 20,
            "TEXCOORD_0": 22,
            "TEXCOORD_1": 23
          },
          "indices": 24,
          "material": 4,
          "mode": 4
        }
      ]
    },
    {
      "name": "FrontSide_5",
      "primitives": [
        {
          "attributes": {
            "NORMAL": 26,
            "POSITION": 25,
            "TEXCOORD_0": 27,
            "TEXCOORD_1": 28
          },
          "indices": 29,
          "material": 5,
          "mode": 4
        }
      ]
    },
    {
      "name": "FrontSide_6",
      "primitives": [
        {
          "attributes": {
            "NORMAL": 31,
            "POSITION": 30,
            "TEXCOORD_0": 32,
            "TEXCOORD_1": 33
          },
          "indices": 34,
          "material": 6,
          "mode": 4
        }
      ]
    },
    {
      "name": "BackSide_0",
      "primitives": [
        {
          "attributes": {
            "NORMAL": 36,
            "POSITION": 35,
            "TEXCOORD_0": 37,
            "TEXCOORD_1": 38
          },
          "indices": 39,
          "material": 7,
          "mode": 4
        }
      ]
    }
  ],
  "nodes": [
    {
      "children": [
        1
      ],
      "matrix": [
        1.0,
        0.0,
        0.0,
        0.0,
        0.0,
        2.220446049250313e-16,
        -1.0,
        0.0,
        0.0,
        1.0,
        2.220446049250313e-16,
        0.0,
        0.0,
        0.0,
        0.0,
        1.0
      ],
      "name": "Sketchfab_model"
    },
    {
      "children": [
        2
      ],
      "matrix": [
        0.009999999776482582,
        0.0,
        0.0,
        0.0,
        0.0,
        0.009999999776482582,
        0.0,
        0.0,
        0.0,
        0.0,
        0.009999999776482582,
        0.0,
        0.0,
        0.0,
        0.0,
        1.0
      ],
      "name": "USDRoot"
    },
    {
      "children": [
        3
      ],
      "name": "model"
    },
    {
      "children": [
        4
      ],
      "name": "Geom"
    },
    {
      "children": [
        5,
        6,
        7,
        8,
        9,
        10,
        11,
        12
      ],
      "matrix": [
        1.0,
        0.0,
        0.0,
        0.0,
        0.0,
        1.0,
        0.0,
        0.0,
        0.0,
        0.0,
        1.0,
        0.0,
        -549.726318359375,
        0.0,
        400.52874755859375,
        1.0
      ],
      "name": "skp879B__USDInstance_1"
    },
    {
      "mesh": 0,
      "name": "FrontSide_0"
    },
    {
      "mesh": 1,
      "name": "FrontSide_1"
    },
    {
      "mesh": 2,
      "name": "FrontSide_2"
    },
    {
      "mesh": 3,
      "name": "FrontSide_3"
    },
    {
      "mesh": 4,
      "name": "FrontSide_4"
    },
    {
      "mesh": 5,
      "name": "FrontSide_5"
    },
    {
      "mesh": 6,
      "name": "FrontSide_6"
    },
    {
      "mesh": 7,
      "name": "BackSide_0"
    }
  ],
  "samplers": [
    {
      "magFilter": 9729,
      "minFilter": 9987,
      "wrapS": 10497,
      "wrapT": 10497
    }
  ],
  "scene": 0,
  "scenes": [
    {
      "name": "Sketchfab_Scene",
      "nodes": [
        0
      ]
    }
  ],
  "textures": [
    {
      "sampler": 0,
      "source": 0
    },
    {
      "sampler": 0,
      "source": 1
    },
    {
      "sampler": 0,
      "source": 2
    },
    {
      "sampler": 0,
      "source": 3
    },
    {
      "sampler": 0,
      "source": 4
    },
    {
      "sampler": 0,
      "source": 5
    },
    {
      "sampler": 0,
      "source": 6
    },
    {
      "sampler": 0,
      "source": 7
    }
  ]
}
