{
  "accessors": [
    {
      "bufferView": 2,
      "componentType": 5126,
      "count": 714,
      "max": [
        824.6790161132813,
        886.9313354492188,
        414.5750427246094
      ],
      "min": [
        -1145.9139404296875,
        -875.6506958007813,
        -0.3349536657333374
      ],
      "type": "VEC3"
    },
    {
      "bufferView": 2,
      "byteOffset": 8568,
      "componentType": 5126,
      "count": 714,
      "max": [
        1.0,
        1.0,
        1.0
      ],
      "min": [
        -1.0,
        -1.0,
        -1.0
      ],
      "type": "VEC3"
    },
    {
      "bufferView": 1,
      "componentType": 5126,
      "count": 714,
      "max": [
        342.0555114746094,
        197.55433654785156
      ],
      "min": [
        -342.0555114746094,
        -140.08187866210938
      ],
      "type": "VEC2"
    },
    {
      "bufferView": 1,
      "byteOffset": 5712,
      "componentType": 5126,
      "count": 714,
      "max": [
        342.0555114746094,
        197.55433654785156
      ],
      "min": [
        -342.0555114746094,
        -140.08187866210938
      ],
      "type": "VEC2"
    },
    {
      "bufferView": 0,
      "componentType": 5125,
      "count": 1185,
      "type": "SCALAR"
    },
    {
      "bufferView": 2,
      "byteOffset": 17136,
      "componentType": 5126,
      "count": 8025,
      "max": [
        820.05859375,
        878.636474609375,
        414.5750732421875
      ],
      "min": [
        -1143.9520263671875,
        -712.552734375,
        -78.42984771728516
      ],
      "type": "VEC3"
    },
    {
      "bufferView": 2,
      "byteOffset": 113436,
      "componentType": 5126,
      "count": 8025,
      "max": [
        1.0,
        1.0,
        1.0
      ],
      "min": [
        -1.0,
        -1.0,
        -1.0
      ],
      "type": "VEC3"
    },
    {
      "bufferView": 1,
      "byteOffset": 11424,
      "componentType": 5126,
      "count": 8025,
      "max": [
        0.9994096755981445,
        -0.0009766396833583713
      ],
      "min": [
        0.0007319999858736992,
        -0.9990252256393433
      ],
      "type": "VEC2"
    },
    {
      "bufferView": 1,
      "byteOffset": 75624,
      "componentType": 5126,
      "count": 8025,
      "max": [
        0.9994096755981445,
        -0.0009766396833583713
      ],
      "min": [
        0.0007319999858736992,
        -0.9990252256393433
      ],
      "type": "VEC2"
    },
    {
      "bufferView": 0,
      "byteOffset": 4740,
      "componentType": 5125,
      "count": 15672,
      "type": "SCALAR"
    },
    {
      "bufferView": 2,
      "byteOffset": 209736,
      "componentType": 5126,
      "count": 425,
      "max": [
        824.0302734375,
        886.931884765625,
        -0.1502498984336853
      ],
      "min": [
        -1145.9139404296875,
        -875.6505737304688,
        -0.1507396548986435
      ],
      "type": "VEC3"
    },
    {
      "bufferView": 2,
      "byteOffset": 214836,
      "componentType": 5126,
      "count": 425,
      "max": [
        1.0,
        8.141753369272919e-07,
        1.0
      ],
      "min": [
        -1.0,
        -1.1399945378798293e-06,
        0.0
      ],
      "type": "VEC3"
    },
    {
      "bufferView": 1,
      "byteOffset": 139824,
      "componentType": 5126,
      "count": 425,
      "max": [
        0.9443368315696716,
        0.0009771508630365133
      ],
      "min": [
        -0.0009769939351826906,
        -0.9404301643371582
      ],
      "type": "VEC2"
    },
    {
      "bufferView": 1,
      "byteOffset": 143224,
      "componentType": 5126,
      "count": 425,
      "max": [
        0.9443368315696716,
        0.0009771508630365133
      ],
      "min": [
        -0.0009769939351826906,
        -0.9404301643371582
      ],
      "type": "VEC2"
    },
    {
      "bufferView": 0,
      "byteOffset": 67428,
      "componentType": 5125,
      "count": 708,
      "type": "SCALAR"
    },
    {
      "bufferView": 2,
      "byteOffset": 219936,
      "componentType": 5126,
      "count": 434,
      "max": [
        616.6677856445313,
        885.6358032226563,
        414.8341369628906
      ],
      "min": [
        -834.8703002929688,
        -874.354248046875,
        -0.6170600056648254
      ],
      "type": "VEC3"
    },
    {
      "bufferView": 2,
      "byteOffset": 225144,
      "componentType": 5126,
      "count": 434,
      "max": [
        1.0,
        1.0,
        1.0
      ],
      "min": [
        -1.0,
        -1.0,
        -0.8660138249397278
      ],
      "type": "VEC3"
    },
    {
      "bufferView": 1,
      "byteOffset": 146624,
      "componentType": 5126,
      "count": 434,
      "max": [
        0.9462890028953552,
        -0.0025395306292921305
      ],
      "min": [
        0.0009766982402652502,
        -0.9990230202674866
      ],
      "type": "VEC2"
    },
    {
      "bufferView": 1,
      "byteOffset": 150096,
      "componentType": 5126,
      "count": 434,
      "max": [
        0.9462890028953552,
        -0.0025395306292921305
      ],
      "min": [
        0.0009766982402652502,
        -0.9990230202674866
      ],
      "type": "VEC2"
    },
    {
      "bufferView": 0,
      "byteOffset": 70260,
      "componentType": 5125,
      "count": 792,
      "type": "SCALAR"
    },
    {
      "bufferView": 2,
      "byteOffset": 230352,
      "componentType": 5126,
      "count": 362,
      "max": [
        824.0305786132813,
        792.6897583007813,
        414.8340148925781
      ],
      "min": [
        -1145.9139404296875,
        -874.3545532226563,
        12.809357643127441
      ],
      "type": "VEC3"
    },
    {
      "bufferView": 2,
      "byteOffset": 234696,
      "componentType": 5126,
      "count": 362,
      "max": [
        1.0,
        1.0,
        1.0
      ],
      "min": [
        -1.0,
        -1.0,
        -1.0
      ],
      "type": "VEC3"
    },
    {
      "bufferView": 1,
      "byteOffset": 153568,
      "componentType": 5126,
      "count": 362,
      "max": [
        0.9677730202674866,
        -0.0009769999887794256
      ],
      "min": [
        0.0009766451548784971,
        -0.9990230202674866
      ],
      "type": "VEC2"
    },
    {
      "bufferView": 1,
      "byteOffset": 156464,
      "componentType": 5126,
      "count": 362,
      "max": [
        0.9677730202674866,
        -0.0009769999887794256
      ],
      "min": [
        0.0009766451548784971,
        -0.9990230202674866
      ],
      "type": "VEC2"
    },
    {
      "bufferView": 0,
      "byteOffset": 73428,
      "componentType": 5125,
      "count": 624,
      "type": "SCALAR"
    },
    {
      "bufferView": 2,
      "byteOffset": 239040,
      "componentType": 5126,
      "count": 4420,
      "max": [
        824.6715087890625,
        656.7810668945313,
        414.0858459472656
      ],
      "min": [
        -1147.9720458984375,
        -836.2701416015625,
        -0.2453899085521698
      ],
      "type": "VEC3"
    },
    {
      "bufferView": 2,
      "byteOffset": 292080,
      "componentType": 5126,
      "count": 4420,
      "max": [
        1.0,
        1.0,
        1.0
      ],
      "min": [
        -1.0,
        -1.0,
        -1.0
      ],
      "type": "VEC3"
    },
    {
      "bufferView": 1,
      "byteOffset": 159360,
      "componentType": 5126,
      "count": 4420,
      "max": [
        450.6307067871094,
        250.348388671875
      ],
      "min": [
        -476.1070251464844,
        -324.8450927734375
      ],
      "type": "VEC2"
    },
    {
      "bufferView": 1,
      "byteOffset": 194720,
      "componentType": 5126,
      "count": 4420,
      "max": [
        450.6307067871094,
        250.348388671875
      ],
      "min": [
        -476.1070251464844,
        -324.8450927734375
      ],
      "type": "VEC2"
    },
    {
      "bufferView": 0,
      "byteOffset": 75924,
      "componentType": 5125,
      "count": 7800,
      "type": "SCALAR"
    },
    {
      "bufferView": 2,
      "byteOffset": 345120,
      "componentType": 5126,
      "count": 2151,
      "max": [
        824.030517578125,
        885.6353759765625,
        415.1887512207031
      ],
      "min": [
        -1145.9139404296875,
        -874.3546142578125,
        -0.3348580598831177
      ],
      "type": "VEC3"
    },
    {
      "bufferView": 2,
      "byteOffset": 370932,
      "componentType": 5126,
      "count": 2151,
      "max": [
        1.0,
        1.0,
        1.0
      ],
      "min": [
        -1.0,
        -1.0,
        -1.0
      ],
      "type": "VEC3"
    },
    {
      "bufferView": 1,
      "byteOffset": 230080,
      "componentType": 5126,
      "count": 2151,
      "max": [
        340.4399108886719,
        259.2334289550781
      ],
      "min": [
        -208.03692626953125,
        -87.06236267089844
      ],
      "type": "VEC2"
    },
    {
      "bufferView": 1,
      "byteOffset": 247288,
      "componentType": 5126,
      "count": 2151,
      "max": [
        340.4399108886719,
        259.2334289550781
      ],
      "min": [
        -208.03692626953125,
        -87.06236267089844
      ],
      "type": "VEC2"
    },
    {
      "bufferView": 0,
      "byteOffset": 107124,
      "componentType": 5125,
      "count": 3900,
      "type": "SCALAR"
    },
    {
      "bufferView": 2,
      "byteOffset": 396744,
      "componentType": 5126,
      "count": 266,
      "max": [
        824.0307006835938,
        58.77729797363281,
        414.8341064453125
      ],
      "min": [
        -1145.9139404296875,
        -666.991943359375,
        12.809391021728516
      ],
      "type": "VEC3"
    },
    {
      "bufferView": 2,
      "byteOffset": 399936,
      "componentType": 5126,
      "count": 266,
      "max": [
        1.0,
        1.0,
        1.0
      ],
      "min": [
        -1.0,
        -1.0,
        -1.0
      ],
      "type": "VEC3"
    },
    {
      "bufferView": 1,
      "byteOffset": 264496,
      "componentType": 5126,
      "count": 266,
      "max": [
        0.9990230202674866,
        0.00332651543430984
      ],
      "min": [
        0.0009769898606464267,
        -1.0009770393371582
      ],
      "type": "VEC2"
    },
    {
      "bufferView": 1,
      "byteOffset": 266624,
      "componentType": 5126,
      "count": 266,
      "max": [
        0.9990230202674866,
        0.00332651543430984
      ],
      "min": [
        0.0009769898606464267,
        -1.0009770393371582
      ],
      "type": "VEC2"
    },
    {
      "bufferView": 0,
      "byteOffset": 122724,
      "componentType": 5125,
      "count": 540,
      "type": "SCALAR"
    },
    {
      "bufferView": 2,
      "byteOffset": 403128,
      "componentType": 5126,
      "count": 1359,
      "max": [
        823.11376953125,
        883.0064697265625,
        414.1981506347656
      ],
      "min": [
        -1145.1290283203125,
        -844.0270385742188,
        0.3694365620613098
      ],
      "type": "VEC3"
    },
    {
      "bufferView": 2,
      "byteOffset": 419436,
      "componentType": 5126,
      "count": 1359,
      "max": [
        1.0,
        1.0,
        1.0
      ],
      "min": [
        -1.0,
        -1.0,
        -1.0
      ],
      "type": "VEC3"
    },
    {
      "bufferView": 1,
      "byteOffset": 268752,
      "componentType": 5126,
      "count": 1359,
      "max": [
        0.9970889091491699,
        -0.027338964864611626
      ],
      "min": [
        0.2509770095348358,
        -0.9990230202674866
      ],
      "type": "VEC2"
    },
    {
      "bufferView": 1,
      "byteOffset": 279624,
      "componentType": 5126,
      "count": 1359,
      "max": [
        0.9970889091491699,
        -0.027338964864611626
      ],
      "min": [
        0.2509770095348358,
        -0.9990230202674866
      ],
      "type": "VEC2"
    },
    {
      "bufferView": 0,
      "byteOffset": 124884,
      "componentType": 5125,
      "count": 3021,
      "type": "SCALAR"
    },
    {
      "bufferView": 2,
      "byteOffset": 435744,
      "componentType": 5126,
      "count": 21029,
      "max": [
        824.6790161132813,
        886.931884765625,
        415.1887512207031
      ],
      "min": [
        -1147.9720458984375,
        -875.6506958007813,
        -78.42984771728516
      ],
      "type": "VEC3"
    },
    {
      "bufferView": 2,
      "byteOffset": 688092,
      "componentType": 5126,
      "count": 21029,
      "max": [
        1.0,
        1.0,
        1.0
      ],
      "min": [
        -1.0,
        -1.0,
        -1.0
      ],
      "type": "VEC3"
    },
    {
      "bufferView": 1,
      "byteOffset": 290496,
      "componentType": 5126,
      "count": 21029,
      "max": [
        476.3133850097656,
        459.4656982421875
      ],
      "min": [
        -476.1070251464844,
        -430.3955993652344
      ],
      "type": "VEC2"
    },
    {
      "bufferView": 1,
      "byteOffset": 458728,
      "componentType": 5126,
      "count": 21029,
      "max": [
        476.3133850097656,
        459.4656982421875
      ],
      "min": [
        -476.1070251464844,
        -430.3955993652344
      ],
      "type": "VEC2"
    },
    {
      "bufferView": 0,
      "byteOffset": 136968,
      "componentType": 5125,
      "count": 34242,
      "type": "SCALAR"
    }
  ],
  "asset": {
    "extras": {
      "author": "katydid (https://sketchfab.com/Katydid.)",
      "license": "SKETCHFAB Standard (https://sketchfab.com/licenses)",
      "source": "https://sketchfab.com/3d-models/horror-corridor-1-09b4d35847db449bbfa89a84087a8932",
      "title": "Horror corridor 1"
    },
    "generator": "Sketchfab-16.74.0",
    "version": "2.0"
  },
  "bufferViews": [
    {
      "buffer": 0,
      "byteLength": 273936,
      "name": "floatBufferViews",
      "target": 34963
    },
    {
      "buffer": 0,
      "byteLength": 626960,
      "byteOffset": 273936,
      "byteStride": 8,
      "name": "floatBufferViews",
      "target": 34962
    },
    {
      "buffer": 0,
      "byteLength": 940440,
      "byteOffset": 900896,
      "byteStride": 12,
      "name": "floatBufferViews",
      "target": 34962
    }
  ],
  "buffers": [
    {
      "byteLength": 1841336,
      "uri": "scene.bin"
    }
  ],
  "images": [
    {
      "uri": "textures/TextureMaterial_baseColor.png"
    },
    {
      "uri": "textures/TextureMaterial_1_baseColor.png"
    },
    {
      "uri": "textures/TextureMaterial_2_baseColor.png"
    },
    {
      "uri": "textures/TextureMaterial_3_baseColor.png"
    },
    {
      "uri": "textures/TextureMaterial_4_baseColor.png"
    },
    {
      "uri": "textures/TextureMaterial_5_baseColor.png"
    },
    {
      "uri": "textures/TextureMaterial_6_baseColor.png"
    },
    {
      "uri": "textures/TextureMaterial_7_baseColor.png"
    },
    {
      "uri": "textures/TextureMaterial_8_baseColor.png"
    },
    {
      "uri": "textures/TextureMaterial_9_baseColor.png"
    }
  ],
  "materials": [
    {
      "alphaMode": "BLEND",
      "name": "TextureMaterial",
      "pbrMetallicRoughness": {
        "baseColorTexture": {
          "index": 0
        },
        "metallicFactor": 0.0,
        "roughnessFactor": 0.5
      }
    },
    {
      "alphaMode": "BLEND",
      "name": "TextureMaterial_1",
      "pbrMetallicRoughness": {
        "baseColorTexture": {
          "index": 1
        },
        "metallicFactor": 0.0,
        "roughnessFactor": 0.5
      }
    },
    {
      "alphaMode": "BLEND",
      "name": "TextureMaterial_2",
      "pbrMetallicRoughness": {
        "baseColorTexture": {
          "index": 2
        },
        "metallicFactor": 0.0,
        "roughnessFactor": 0.5
      }
    },
    {
      "alphaMode": "BLEND",
      "name": "TextureMaterial_3",
      "pbrMetallicRoughness": {
        "baseColorTexture": {
          "index": 3
        },
        "metallicFactor": 0.0,
        "roughnessFactor": 0.5
      }
    },
    {
      "alphaMode": "BLEND",
      "name": "TextureMaterial_4",
      "pbrMetallicRoughness": {
        "baseColorTexture": {
          "index": 4
        },
        "metallicFactor": 0.0,
        "roughnessFactor": 0.5
      }
    },
    {
      "alphaMode": "BLEND",
      "name": "TextureMaterial_5",
      "pbrMetallicRoughness": {
        "baseColorTexture": {
          "index": 5
        },
        "metallicFactor": 0.0,
        "roughnessFactor": 0.5
      }
    },
    {
      "alphaMode": "BLEND",
      "name": "TextureMaterial_6",
      "pbrMetallicRoughness": {
        "baseColorTexture": {
          "index": 6
        },
        "metallicFactor": 0.0,
        "roughnessFactor": 0.5
      }
    },
    {
      "alphaMode": "BLEND",
      "name": "TextureMaterial_7",
      "pbrMetallicRoughness": {
        "baseColorTexture": {
          "index": 7
        },
        "metallicFactor": 0.0,
        "roughnessFactor": 0.5
      }
    },
    {
      "alphaMode": "BLEND",
      "name": "TextureMaterial_8",
      "pbrMetallicRoughness": {
        "baseColorTexture": {
          "index": 8
        },
        "metallicFactor": 0.0,
        "roughnessFactor": 0.5
      }
    },
    {
      "alphaMode": "BLEND",
      "name": "TextureMaterial_9",
      "pbrMetallicRoughness": {
        "baseColorFactor": [
          1.0,
          1.0,
          1.0,
          0.0
        ],
        "baseColorTexture": {
          "index": 9
        },
        "metallicFactor": 0.0,
        "roughnessFactor": 0.5
      }
    }
  ],
  "meshes": [
    {
      "name": "FrontSide_0",
      "primitives": [
        {
          "attributes": {
            "NORMAL": 1,
            "POSITION": 0,
            "TEXCOORD_0": 2,
            "TEXCOORD_1": 3
          },
          "indices": 4,
          "material": 0,
          "mode": 4
        }
      ]
    },
    {
      "name": "FrontSide_1",
      "primitives": [
        {
          "attributes": {
            "NORMAL": 6,
            "POSITION": 5,
            "TEXCOORD_0": 7,
            "TEXCOORD_1": 8
          },
          "indices": 9,
          "material": 1,
          "mode": 4
        }
      ]
    },
    {
      "name": "FrontSide_2",
      "primitives": [
        {
          "attributes": {
            "NORMAL": 11,
            "POSITION": 10,
            "TEXCOORD_0": 12,
            "TEXCOORD_1": 13
          },
          "indices": 14,
          "material": 2,
          "mode": 4
        }
      ]
    },
    {
      "name": "FrontSide_3",
      "primitives": [
        {
          "attributes": {
            "NORMAL": 16,
            "POSITION": 15,
            "TEXCOORD_0": 17,
            "TEXCOORD_1": 18
          },
          "indices": 19,
          "material": 3,
          "mode": 4
        }
      ]
    },
    {
      "name": "FrontSide_4",
      "primitives": [
        {
          "attributes": {
            "NORMAL": 21,
            "POSITION": 20,
            "TEXCOORD_0": 22,
            "TEXCOORD_1": 23
          },
          "indices": 24,
          "material": 4,
          "mode": 4
        }
      ]
    },
    {
      "name": "FrontSide_5",
      "primitives": [
        {
          "attributes": {
            "NORMAL": 26,
            "POSITION": 25,
            "TEXCOORD_0": 27,
            "TEXCOORD_1": 28
          },
          "indices": 29,
          "material": 5,
          "mode": 4
        }
      ]
    },
    {
      "name": "FrontSide_6",
      "primitives": [
        {
          "attributes": {
            "NORMAL": 31,
            "POSITION": 30,
            "TEXCOORD_0": 32,
            "TEXCOORD_1": 33
          },
          "indices": 34,
          "material": 6,
          "mode": 4
        }
      ]
    },
    {
      "name": "FrontSide_7",
      "primitives": [
        {
          "attributes": {
            "NORMAL": 36,
            "POSITION": 35,
            "TEXCOORD_0": 37,
            "TEXCOORD_1": 38
          },
          "indices": 39,
          "material": 7,
          "mode": 4
        }
      ]
    },
    {
      "name": "FrontSide_8",
      "primitives": [
        {
          "attributes": {
            "NORMAL": 41,
            "POSITION": 40,
            "TEXCOORD_0": 42,
            "TEXCOORD_1": 43
          },
          "indices": 44,
          "material": 8,
          "mode": 4
        }
      ]
    },
    {
      "name": "BackSide_0",
      "primitives": [
        {
          "attributes": {
            "NORMAL": 46,
            "POSITION": 45,
            "TEXCOORD_0": 47,
            "TEXCOORD_1": 48
          },
          "indices": 49,
          "material": 9,
          "mode": 4
        }
      ]
    }
  ],
  "nodes": [
    {
      "children": [
        1
      ],
      "matrix": [
        1.0,
        0.0,
        0.0,
        0.0,
        0.0,
        2.220446049250313e-16,
        -1.0,
        0.0,
        0.0,
        1.0,
        2.220446049250313e-16,
        0.0,
        0.0,
        0.0,
        0.0,
        1.0
      ],
      "name": "Sketchfab_model"
    },
    {
      "children": [
        2
      ],
      "matrix": [
        0.009999999776482582,
        0.0,
        0.0,
        0.0,
        0.0,
        0.009999999776482582,
        0.0,
        0.0,
        0.0,
        0.0,
        0.009999999776482582,
        0.0,
        0.0,
        0.0,
        0.0,
        1.0
      ],
      "name": "USDRoot"
    },
    {
      "children": [
        3
      ],
      "name": "model"
    },
    {
      "children": [
        4
      ],
      "name": "Geom"
    },
    {
      "children": [
        5,
        6,
        7,
        8,
        9,
        10,
        11,
        12,
        13,
        14
      ],
      "matrix": [
        1.0,
        0.0,
        0.0,
        0.0,
        0.0,
        1.0,
        0.0,
        0.0,
        0.0,
        0.0,
        1.0,
        0.0,
        -425.3868408203125,
        0.0,
        251.9053192138672,
        1.0
      ],
      "name": "skp54B8__USDInstance_1"
    },
    {
      "mesh": 0,
      "name": "FrontSide_0"
    },
    {
      "mesh": 1,
      "name": "FrontSide_1"
    },
    {
      "mesh": 2,
      "name": "FrontSide_2"
    },
    {
      "mesh": 3,
      "name": "FrontSide_3"
    },
    {
      "mesh": 4,
      "name": "FrontSide_4"
    },
    {
      "mesh": 5,
      "name": "FrontSide_5"
    },
    {
      "mesh": 6,
      "name": "FrontSide_6"
    },
    {
      "mesh": 7,
      "name": "FrontSide_7"
    },
    {
      "mesh": 8,
      "name": "FrontSide_8"
    },
    {
      "mesh": 9,
      "name": "BackSide_0"
    }
  ],
  "samplers": [
    {
      "magFilter": 9729,
      "minFilter": 9987,
      "wrapS": 10497,
      "wrapT": 10497
    }
  ],
  "scene": 0,
  "scenes": [
    {
      "name": "Sketchfab_Scene",
      "nodes": [
        0
      ]
    }
  ],
  "textures": [
    {
      "sampler": 0,
      "source": 0
    },
    {
      "sampler": 0,
      "source": 1
    },
    {
      "sampler": 0,
      "source": 2
    },
    {
      "sampler": 0,
      "source": 3
    },
    {
      "sampler": 0,
      "source": 4
    },
    {
      "sampler": 0,
      "source": 5
    },
    {
      "sampler": 0,
      "source": 6
    },
    {
      "sampler": 0,
      "source": 7
    },
    {
      "sampler": 0,
      "source": 8
    },
    {
      "sampler": 0,
      "source": 9
    }
  ]
}
