{
  "accessors": [
    {
      "bufferView": 2,
      "componentType": 5126,
      "count": 1134,
      "max": [
        0.949124813079834,
        0.9091857671737671,
        0.0032103145495057106
      ],
      "min": [
        -0.898198664188385,
        -1.0442873239517212,
        0.0017118670511990786
      ],
      "type": "VEC3"
    },
    {
      "bufferView": 2,
      "byteOffset": 13608,
      "componentType": 5126,
      "count": 1134,
      "max": [
        0.9999995231628418,
        0.9994974732398987,
        1.0
      ],
      "min": [
        -0.9999955296516418,
        -0.9999997019767761,
        -1.0
      ],
      "type": "VEC3"
    },
    {
      "bufferView": 1,
      "componentType": 5126,
      "count": 1134,
      "max": [
        0.9901608228683472,
        0.9501628279685974
      ],
      "min": [
        0.018724143505096436,
        0.022916704416275024
      ],
      "type": "VEC2"
    },
    {
      "bufferView": 0,
      "componentType": 5125,
      "count": 2256,
      "type": "SCALAR"
    },
    {
      "bufferView": 2,
      "byteOffset": 27216,
      "componentType": 5126,
      "count": 1122,
      "max": [
        0.9616398215293884,
        0.9626540541648865,
        0.0032103145495057106
      ],
      "min": [
        -0.901951789855957,
        -0.990818977355957,
        -8.559451458722833e-08
      ],
      "type": "VEC3"
    },
    {
      "bufferView": 2,
      "byteOffset": 40680,
      "componentType": 5126,
      "count": 1122,
      "max": [
        0.9999999403953552,
        0.9994974732398987,
        1.0
      ],
      "min": [
        -0.9999958872795105,
        -0.9999756217002869,
        -1.0
      ],
      "type": "VEC3"
    },
    {
      "bufferView": 1,
      "byteOffset": 9072,
      "componentType": 5126,
      "count": 1122,
      "max": [
        0.9912828207015991,
        0.9496533274650574
      ],
      "min": [
        0.02109760046005249,
        0.022786948829889297
      ],
      "type": "VEC2"
    },
    {
      "bufferView": 0,
      "byteOffset": 9024,
      "componentType": 5125,
      "count": 2232,
      "type": "SCALAR"
    },
    {
      "bufferView": 2,
      "byteOffset": 54144,
      "componentType": 5126,
      "count": 1128,
      "max": [
        0.9616398215293884,
        0.9626540541648865,
        0.0032103145495057106
      ],
      "min": [
        -0.901951789855957,
        -0.990818977355957,
        -8.559451458722833e-08
      ],
      "type": "VEC3"
    },
    {
      "bufferView": 2,
      "byteOffset": 67680,
      "componentType": 5126,
      "count": 1128,
      "max": [
        0.9999999403953552,
        0.9994974732398987,
        1.0
      ],
      "min": [
        -0.9999958872795105,
        -0.9999756217002869,
        -1.0
      ],
      "type": "VEC3"
    },
    {
      "bufferView": 1,
      "byteOffset": 18048,
      "componentType": 5126,
      "count": 1128,
      "max": [
        0.9912828207015991,
        0.9494166374206543
      ],
      "min": [
        0.01756276749074459,
        0.022172361612319946
      ],
      "type": "VEC2"
    },
    {
      "bufferView": 0,
      "byteOffset": 17952,
      "componentType": 5125,
      "count": 2244,
      "type": "SCALAR"
    }
  ],
  "asset": {
    "extras": {
      "author": "trashbinkr (https://sketchfab.com/ChristopherKR)",
      "license": "SKETCHFAB Standard (https://sketchfab.com/licenses)",
      "source": "https://sketchfab.com/3d-models/papers-765f4053bb2348f693cd4826fa110bb0",
      "title": "Papers"
    },
    "generator": "Sketchfab-17.20.0",
    "version": "2.0"
  },
  "bufferViews": [
    {
      "buffer": 0,
      "byteLength": 26928,
      "name": "floatBufferViews",
      "target": 34963
    },
    {
      "buffer": 0,
      "byteLength": 27072,
      "byteOffset": 26928,
      "byteStride": 8,
      "name": "floatBufferViews",
      "target": 34962
    },
    {
      "buffer": 0,
      "byteLength": 81216,
      "byteOffset": 54000,
      "byteStride": 12,
      "name": "floatBufferViews",
      "target": 34962
    }
  ],
  "buffers": [
    {
      "byteLength": 135216,
      "uri": "scene.bin"
    }
  ],
  "images": [
    {
      "uri": "textures/material_baseColor.png"
    },
    {
      "uri": "textures/material_1_baseColor.png"
    },
    {
      "uri": "textures/material_2_baseColor.png"
    }
  ],
  "materials": [
    {
      "doubleSided": true,
      "name": "material",
      "pbrMetallicRoughness": {
        "baseColorTexture": {
          "index": 0
        },
        "metallicFactor": 0.0
      }
    },
    {
      "doubleSided": true,
      "name": "material_1",
      "pbrMetallicRoughness": {
        "baseColorTexture": {
          "index": 1
        },
        "metallicFactor": 0.0
      }
    },
    {
      "doubleSided": true,
      "name": "material_2",
      "pbrMetallicRoughness": {
        "baseColorTexture": {
          "index": 2
        },
        "metallicFactor": 0.0
      }
    }
  ],
  "meshes": [
    {
      "name": "1_1_0",
      "primitives": [
        {
          "attributes": {
            "NORMAL": 1,
            "POSITION": 0,
            "TEXCOORD_0": 2
          },
          "indices": 3,
          "material": 0,
          "mode": 4
        }
      ]
    },
    {
      "name": "2_2_0",
      "primitives": [
        {
          "attributes": {
            "NORMAL": 5,
            "POSITION": 4,
            "TEXCOORD_0": 6
          },
          "indices": 7,
          "material": 1,
          "mode": 4
        }
      ]
    },
    {
      "name": "3_3_0",
      "primitives": [
        {
          "attributes": {
            "NORMAL": 9,
            "POSITION": 8,
            "TEXCOORD_0": 10
          },
          "indices": 11,
          "material": 2,
          "mode": 4
        }
      ]
    }
  ],
  "nodes": [
    {
      "children": [
        1
      ],
      "matrix": [
        1.0,
        0.0,
        0.0,
        0.0,
        0.0,
        2.220446049250313e-16,
        -1.0,
        0.0,
        0.0,
        1.0,
        2.220446049250313e-16,
        0.0,
        0.0,
        0.0,
        0.0,
        1.0
      ],
      "name": "Sketchfab_model"
    },
    {
      "children": [
        2
      ],
      "matrix": [
        0.009999999776482582,
        0.0,
        0.0,
        0.0,
        0.0,
        0.0,
        0.009999999776482582,
        0.0,
        0.0,
        -0.009999999776482582,
        0.0,
        0.0,
        0.0,
        0.0,
        0.0,
        1.0
      ],
      "name": "Papers.fbx"
    },
    {
      "children": [
        3,
        5,
        7
      ],
      "name": "RootNode"
    },
    {
      "children": [
        4
      ],
      "matrix": [
        -7.366531776792357e-06,
        -168.5265960693357,
        -5.02248393760415e-06,
        0.0,
        9.175543784340854e-06,
        3.621987880337123e-06,
        -121.53376007080038,
        0.0,
        121.53376007080033,
        -5.3124098486555445e-06,
        9.175543615678879e-06,
        0.0,
        0.0,
        0.0,
        0.0,
        1.0
      ],
      "name": "1"
    },
    {
      "mesh": 0,
      "name": "1_1_0"
    },
    {
      "children": [
        6
      ],
      "matrix": [
        -7.366531776792357e-06,
        -168.5265960693357,
        -5.02248393760415e-06,
        0.0,
        9.175543784340854e-06,
        3.621987880337123e-06,
        -121.53376007080038,
        0.0,
        121.53376007080033,
        -5.3124098486555445e-06,
        9.175543615678879e-06,
        0.0,
        -1.3949863694180897e-16,
        -0.628246009349823,
        -250.54330444335938,
        1.0
      ],
      "name": "2"
    },
    {
      "mesh": 1,
      "name": "2_2_0"
    },
    {
      "children": [
        8
      ],
      "matrix": [
        -7.366531776792357e-06,
        -168.5265960693357,
        -5.02248393760415e-06,
        0.0,
        9.175543784340854e-06,
        3.621987880337123e-06,
        -121.53376007080038,
        0.0,
        121.53376007080033,
        -5.3124098486555445e-06,
        9.175543615678879e-06,
        0.0,
        -1.3949863694180897e-16,
        -0.628246009349823,
        -502.68426513671875,
        1.0
      ],
      "name": "3"
    },
    {
      "mesh": 2,
      "name": "3_3_0"
    }
  ],
  "samplers": [
    {
      "magFilter": 9729,
      "minFilter": 9987,
      "wrapS": 10497,
      "wrapT": 10497
    }
  ],
  "scene": 0,
  "scenes": [
    {
      "name": "Sketchfab_Scene",
      "nodes": [
        0
      ]
    }
  ],
  "textures": [
    {
      "sampler": 0,
      "source": 0
    },
    {
      "sampler": 0,
      "source": 1
    },
    {
      "sampler": 0,
      "source": 2
    }
  ]
}
