{
  "accessors": [
    {
      "bufferView": 2,
      "componentType": 5126,
      "count": 326,
      "max": [
        0.011624936945736408,
        0.06192607060074806,
        0.012183057144284248
      ],
      "min": [
        -0.011624937877058983,
        -0.13807393610477448,
        -0.012183057144284248
      ],
      "type": "VEC3"
    },
    {
      "bufferView": 2,
      "byteOffset": 3912,
      "componentType": 5126,
      "count": 326,
      "max": [
        1.0,
        0.9960322976112366,
        1.0
      ],
      "min": [
        -1.0,
        -1.0,
        -1.0
      ],
      "type": "VEC3"
    },
    {
      "bufferView": 3,
      "componentType": 5126,
      "count": 326,
      "max": [
        0.9999979734420776,
        0.9999011754989624,
        0.9999250173568726,
        1.0
      ],
      "min": [
        -0.9998398423194885,
        -1.0,
        -0.9999291896820068,
        -1.0
      ],
      "type": "VEC4"
    },
    {
      "bufferView": 1,
      "componentType": 5126,
      "count": 326,
      "max": [
        0.7688945531845093,
        0.976189911365509
      ],
      "min": [
        0.02381008118391037,
        0.023810088634490967
      ],
      "type": "VEC2"
    },
    {
      "bufferView": 1,
      "byteOffset": 2608,
      "componentType": 5126,
      "count": 326,
      "max": [
        0.7688945531845093,
        0.976189911365509
      ],
      "min": [
        0.02381008118391037,
        0.023810088634490967
      ],
      "type": "VEC2"
    },
    {
      "bufferView": 1,
      "byteOffset": 5216,
      "componentType": 5126,
      "count": 326,
      "max": [
        0.7688945531845093,
        0.976189911365509
      ],
      "min": [
        0.02381008118391037,
        0.023810088634490967
      ],
      "type": "VEC2"
    },
    {
      "bufferView": 1,
      "byteOffset": 7824,
      "componentType": 5126,
      "count": 326,
      "max": [
        0.7688945531845093,
        0.976189911365509
      ],
      "min": [
        0.02381008118391037,
        0.023810088634490967
      ],
      "type": "VEC2"
    },
    {
      "bufferView": 0,
      "componentType": 5125,
      "count": 1344,
      "type": "SCALAR"
    }
  ],
  "asset": {
    "extras": {
      "author": "lonesomeducky (https://sketchfab.com/lonesomeducky)",
      "license": "SKETCHFAB Standard (https://sketchfab.com/licenses)",
      "source": "https://sketchfab.com/3d-models/flathead-screwdriver-47caeec407594d4b8995f4c046e047f4",
      "title": "Flathead Screwdriver"
    },
    "generator": "Sketchfab-16.61.0",
    "version": "2.0"
  },
  "bufferViews": [
    {
      "buffer": 0,
      "byteLength": 5376,
      "name": "floatBufferViews",
      "target": 34963
    },
    {
      "buffer": 0,
      "byteLength": 10432,
      "byteOffset": 5376,
      "byteStride": 8,
      "name": "floatBufferViews",
      "target": 34962
    },
    {
      "buffer": 0,
      "byteLength": 7824,
      "byteOffset": 15808,
      "byteStride": 12,
      "name": "floatBufferViews",
      "target": 34962
    },
    {
      "buffer": 0,
      "byteLength": 5216,
      "byteOffset": 23632,
      "byteStride": 16,
      "name": "floatBufferViews",
      "target": 34962
    }
  ],
  "buffers": [
    {
      "byteLength": 28848,
      "uri": "scene.bin"
    }
  ],
  "images": [
    {
      "uri": "textures/Material_baseColor.png"
    },
    {
      "uri": "textures/Material_metallicRoughness.png"
    },
    {
      "uri": "textures/Material_normal.png"
    }
  ],
  "materials": [
    {
      "name": "Material",
      "normalTexture": {
        "index": 2
      },
      "pbrMetallicRoughness": {
        "baseColorTexture": {
          "index": 0
        },
        "metallicRoughnessTexture": {
          "index": 1
        }
      }
    }
  ],
  "meshes": [
    {
      "name": "Object_0",
      "primitives": [
        {
          "attributes": {
            "NORMAL": 1,
            "POSITION": 0,
            "TANGENT": 2,
            "TEXCOORD_0": 3,
            "TEXCOORD_1": 4,
            "TEXCOORD_2": 5,
            "TEXCOORD_3": 6
          },
          "indices": 7,
          "material": 0,
          "mode": 4
        }
      ]
    }
  ],
  "nodes": [
    {
      "children": [
        1
      ],
      "matrix": [
        0.8830783367156982,
        -0.46922555565834045,
        -1.319445787425134e-16,
        0.0,
        -0.4300473630428314,
        -0.8093453645706176,
        -0.40002423524856584,
        0.0,
        0.18770158290863037,
        0.35325273871421836,
        -0.9165045619010924,
        0.0,
        0.0,
        0.0,
        0.0,
        1.0
      ],
      "name": "Sketchfab_model"
    },
    {
      "children": [
        2
      ],
      "name": "root"
    },
    {
      "children": [
        3
      ],
      "matrix": [
        1.0,
        0.0,
        0.0,
        0.0,
        0.0,
        2.220446049250313e-16,
        1.0,
        0.0,
        0.0,
        -1.0,
        2.220446049250313e-16,
        0.0,
        0.0,
        0.0,
        0.0,
        1.0
      ],
      "name": "GLTF_SceneRootNode"
    },
    {
      "children": [
        4
      ],
      "name": "FlatheadScrewdriver_0"
    },
    {
      "mesh": 0,
      "name": "Object_4"
    }
  ],
  "samplers": [
    {
      "magFilter": 9729,
      "minFilter": 9987,
      "wrapS": 10497,
      "wrapT": 10497
    }
  ],
  "scene": 0,
  "scenes": [
    {
      "name": "Sketchfab_Scene",
      "nodes": [
        0
      ]
    }
  ],
  "textures": [
    {
      "sampler": 0,
      "source": 0
    },
    {
      "sampler": 0,
      "source": 1
    },
    {
      "sampler": 0,
      "source": 2
    }
  ]
}
